<svg width="80" height="18" viewBox="0 0 80 18" fill="none" xmlns="http://www.w3.org/2000/svg">
<path fill-rule="evenodd" clip-rule="evenodd" d="M41.329 0.444336H38.8557V17.2622C39.9803 17.6692 41.3797 17.9998 42.9791 17.9998C47.0771 17.9998 49.4509 15.5573 49.4509 11.9193C49.4509 8.30609 47.0518 6.2201 43.8529 6.2201C42.8787 6.2201 41.8537 6.50006 41.329 6.78003V0.444336ZM23.6798 1.46203C22.8556 1.46203 22.1302 2.14898 22.1302 3.01381C22.1302 3.90454 22.8556 4.6174 23.6798 4.6174C24.5047 4.6174 25.2294 3.90454 25.2294 3.01381C25.2294 2.14898 24.5047 1.46203 23.6798 1.46203ZM8.37172 15.4578C7.83239 15.6732 7.26382 15.7867 6.64796 15.7867C4.49843 15.7867 2.99857 14.3617 2.99857 12.1228C2.99857 9.75665 4.54819 8.45892 6.5475 8.45892C7.13506 8.45892 7.70553 8.56178 8.25986 8.7878C8.52839 8.11883 8.8818 7.51115 9.31022 6.97559C8.39147 6.4756 7.47955 6.22 6.32322 6.22C3.07377 6.22 0.5 8.48386 0.5 12.1228C0.5 15.736 2.94881 17.9999 6.32322 17.9999C7.4579 17.9999 8.49876 17.7572 9.49196 17.2132C9.04151 16.6975 8.66417 16.1092 8.37172 15.4578ZM15.1581 6.22012C18.4816 6.22012 20.8808 8.61198 20.8808 12.1229C20.8808 15.6089 18.4816 18 15.1581 18C11.8598 18 9.46078 15.6089 9.46078 12.1229C9.46078 8.61198 11.8598 6.22012 15.1581 6.22012ZM11.9594 12.1229C11.9594 9.83332 13.309 8.38266 15.1581 8.38266C17.0579 8.38266 18.3823 9.83332 18.3823 12.1229C18.3823 14.3877 17.0579 15.8374 15.1581 15.8374C13.309 15.8374 11.9594 14.3877 11.9594 12.1229ZM22.4557 17.7457H24.929V6.4743H22.4557V17.7457ZM27.0873 7.1871C28.6369 6.57652 30.5367 6.22 32.1604 6.22C34.9847 6.22 36.784 7.31413 36.784 10.4944V17.7456H34.3352V10.7238C34.3352 9.09541 33.3355 8.50958 31.9606 8.50958C31.0857 8.50958 30.212 8.6368 29.5616 8.84039V17.7456H27.0873V7.1871ZM41.3291 15.609C41.804 15.761 42.4292 15.8373 43.0532 15.8373C45.3275 15.8373 46.9523 14.5655 46.9523 11.9701C46.9523 9.7816 45.428 8.48407 43.5536 8.48407C42.5792 8.48407 41.8293 8.73909 41.3291 9.01905V15.609ZM54.4733 8.40855C55.6972 8.40855 56.5973 8.96751 56.5973 10.1889V11.131H55.3725C52.1737 11.131 50.2496 12.2501 50.2496 14.5397C50.2496 17.0845 52.3492 17.975 55.2232 17.975C56.4726 17.975 57.9715 17.7964 59.0209 17.5164V10.0616C59.0209 7.23785 57.2966 6.22009 54.8732 6.22009C53.4981 6.22009 52.2487 6.57662 51.2745 7.13557V9.32403C52.199 8.78983 53.1986 8.40855 54.4733 8.40855ZM56.5973 12.8101H55.5479C53.8228 12.8101 52.6984 13.3184 52.6984 14.4634C52.6984 15.6339 53.7486 16.0917 55.2477 16.0917C55.6231 16.0917 56.1478 16.0411 56.5973 15.9645V12.8101ZM64.1935 15.9647C63.0691 15.9647 61.8451 15.4811 60.8202 14.6927V17.0845C61.6452 17.6444 62.9443 18 64.2442 18C66.6432 18 68.4173 16.9316 68.4173 14.5656C68.4173 12.5301 67.3182 11.563 64.7934 11.0031C63.5188 10.6475 63.0448 10.2653 63.0448 9.52767C63.0448 8.78987 63.6192 8.25566 64.6939 8.25566C65.8681 8.25566 66.818 8.68856 67.7922 9.40045V7.08516C66.8677 6.50029 65.8681 6.22033 64.6187 6.22033C62.3698 6.22033 60.67 7.33921 60.67 9.62976C60.67 11.5889 61.6452 12.5301 63.944 13.0643C65.3686 13.4456 66.0183 13.7762 66.0183 14.6927C66.0183 15.5832 65.2936 15.9647 64.1935 15.9647ZM71.8034 12.6828V12.7335C71.9536 14.7431 73.6525 15.8372 75.3766 15.8372C76.901 15.8372 78.0009 15.4809 79.1001 14.7431V16.9573C78.1004 17.6691 76.626 17.9998 75.2021 17.9998C71.7536 17.9998 69.4043 15.7608 69.4043 12.1993C69.4043 8.61195 71.7029 6.22009 74.7524 6.22009C77.9757 6.22009 79.5 8.33199 79.5 11.41V12.6828H71.8034ZM74.6774 8.33206C76.2768 8.33206 77.1262 9.2982 77.176 11.0545H71.8784C72.2033 9.34982 73.2525 8.33206 74.6774 8.33206Z" fill="#1652F0"/>
</svg>
