<svg width="36" height="35" viewBox="0 0 36 35" fill="none" xmlns="http://www.w3.org/2000/svg">
<path d="M30.7162 29.359C30.1317 16.368 20.1833 5.84451 7.53104 4.51099C6.45685 5.50037 5.51233 6.62858 4.72266 7.86825C10.4962 7.72942 16.3143 9.88808 20.7214 14.3384C25.533 19.1993 27.6369 25.7613 27.0311 32.1102C28.382 31.3632 29.6207 30.4345 30.7162 29.359Z" fill="white"/>
<path d="M5.45235 10.6329C4.70526 10.6329 3.9659 10.6779 3.24009 10.7639C2.77558 11.9371 2.433 13.1787 2.23364 14.4673C7.21171 13.2374 12.6891 14.5866 16.5794 18.5148C20.762 22.7422 21.9872 28.8251 20.2607 34.1397C21.6136 34.0341 22.9201 33.7662 24.1665 33.3575C24.3736 32.2235 24.482 31.0542 24.482 29.8575C24.482 19.2402 15.964 10.6329 5.45235 10.6329Z" fill="white"/>
<path d="M25.0723 10.1304C29.6207 14.7254 32.2859 20.4955 33.0775 26.4729C34.8233 23.7863 35.8394 20.5718 35.8394 17.1167C35.8394 7.68626 28.2717 0.0390625 18.9369 0.0390625C15.8691 0.0390625 12.9911 0.866155 10.5117 2.30916C15.8459 3.34939 20.9401 5.95581 25.0723 10.1304Z" fill="white"/>
<path d="M6.0001 16.5791C4.76913 16.5791 3.13558 16.7766 2.23364 17.0992C2.23364 18.2352 2.71171 20.1163 2.71171 20.1163C6.14913 19.1601 9.77042 20.0439 12.4724 22.7735C15.3795 25.7124 16.0665 29.9749 14.7465 33.6372C15.7704 33.9071 16.7807 34.085 17.8704 34.1554C18.364 32.7691 18.8169 31.2752 18.8169 29.7168C18.8188 22.4587 13.1827 16.5791 6.0001 16.5791Z" fill="white"/>
<path d="M5.05928 22.4254C4.33347 22.4254 3.63089 22.531 2.96509 22.7246C3.21477 23.4461 3.50896 24.1461 3.84767 24.8207C5.40573 24.85 6.95799 25.462 8.14444 26.6645C9.47993 28.0117 10.0799 29.8204 9.95218 31.5821C10.6451 32.0221 11.3767 32.4151 12.1335 32.7514C12.4451 31.9145 12.6173 31.0073 12.6173 30.0589C12.6154 25.8433 9.23412 22.4254 5.05928 22.4254Z" fill="white"/>
<path d="M7.42455 31.1246C7.42455 33.1718 5.78133 34.8299 3.75488 34.8299C1.72843 34.8299 0.0852051 33.1699 0.0852051 31.1246C0.0852051 29.0755 1.72843 27.4174 3.75488 27.4174C5.78326 27.4174 7.42455 29.0774 7.42455 31.1246Z" fill="white"/>
</svg>
